<svg width="44" height="44" viewBox="0 0 44 44" fill="none" xmlns="http://www.w3.org/2000/svg">
<circle cx="22" cy="22" r="22" fill="#EBEBEB"/>
<path fill-rule="evenodd" clip-rule="evenodd" d="M19 14.5C19.3349 14.5 19.6291 14.722 19.7211 15.044L20.5343 17.8902C20.8903 19.1359 21.8641 20.1097 23.1099 20.4657L25.956 21.2789C26.278 21.3709 26.5 21.6651 26.5 22C26.5 22.3349 26.278 22.6291 25.956 22.7211L23.1098 23.5343C21.8641 23.8903 20.8903 24.8641 20.5343 26.1099L19.7211 28.956C19.6291 29.278 19.3349 29.5 19 29.5C18.6651 29.5 18.3709 29.278 18.2789 28.956L17.4657 26.1099C17.1097 24.8641 16.1359 23.8903 14.8901 23.5343L12.044 22.7211C11.722 22.6291 11.5 22.3349 11.5 22C11.5 21.6651 11.722 21.3709 12.044 21.2789L14.8901 20.4657C16.1359 20.1097 17.1097 19.1359 17.4657 17.8901L18.2789 15.044C18.3709 14.722 18.6651 14.5 19 14.5Z" fill="#4B98B9"/>
<path fill-rule="evenodd" clip-rule="evenodd" d="M28 11.5C28.3442 11.5 28.6441 11.7342 28.7276 12.0681L28.9865 13.1036C29.2216 14.0441 29.9559 14.7784 30.8964 15.0135L31.9319 15.2724C32.2658 15.3559 32.5 15.6558 32.5 16C32.5 16.3442 32.2658 16.6441 31.9319 16.7276L30.8964 16.9865C29.9559 17.2216 29.2216 17.9559 28.9865 18.8964L28.7276 19.9319C28.6441 20.2658 28.3442 20.5 28 20.5C27.6558 20.5 27.3559 20.2658 27.2724 19.9319L27.0135 18.8964C26.7784 17.9559 26.0441 17.2216 25.1036 16.9865L24.0681 16.7276C23.7342 16.6441 23.5 16.3442 23.5 16C23.5 15.6558 23.7342 15.3559 24.0681 15.2724L25.1036 15.0135C26.0441 14.7784 26.7784 14.0441 27.0135 13.1036L27.2724 12.0681C27.3559 11.7342 27.6558 11.5 28 11.5Z" fill="#4B98B9"/>
<path fill-rule="evenodd" clip-rule="evenodd" d="M26.5 25C26.8228 25 27.1094 25.2066 27.2115 25.5128L27.6058 26.6956C27.7551 27.1435 28.1065 27.4949 28.5544 27.6442L29.7372 28.0385C30.0434 28.1406 30.25 28.4272 30.25 28.75C30.25 29.0728 30.0434 29.3594 29.7372 29.4615L28.5544 29.8558C28.1065 30.0051 27.7551 30.3565 27.6058 30.8044L27.2115 31.9872C27.1094 32.2934 26.8228 32.5 26.5 32.5C26.1772 32.5 25.8906 32.2934 25.7885 31.9872L25.3942 30.8044C25.2449 30.3565 24.8935 30.0051 24.4456 29.8558L23.2628 29.4615C22.9566 29.3594 22.75 29.0728 22.75 28.75C22.75 28.4272 22.9566 28.1406 23.2628 28.0385L24.4456 27.6442C24.8935 27.4949 25.2449 27.1435 25.3942 26.6956L25.7885 25.5128C25.8906 25.2066 26.1772 25 26.5 25Z" fill="#4B98B9"/>
</svg>
