<svg width="44" height="44" viewBox="0 0 44 44" fill="none" xmlns="http://www.w3.org/2000/svg">
<circle cx="22" cy="22" r="22" fill="#EBEBEB"/>
<path d="M21.645 30.9107L21.6384 30.9072L21.6158 30.8949C21.5965 30.8844 21.5689 30.8693 21.5336 30.8496C21.4629 30.8101 21.3612 30.7524 21.233 30.6769C20.9765 30.5261 20.6132 30.3039 20.1785 30.015C19.3107 29.4381 18.1512 28.5901 16.9886 27.5063C14.6878 25.3615 12.25 22.1751 12.25 18.25C12.25 15.3219 14.7136 13 17.6875 13C19.4364 13 21.0023 13.7991 22 15.0516C22.9977 13.7991 24.5636 13 26.3125 13C29.2864 13 31.75 15.3219 31.75 18.25C31.75 22.1751 29.3122 25.3615 27.0114 27.5063C25.8488 28.5901 24.6893 29.4381 23.8215 30.015C23.3868 30.3039 23.0235 30.5261 22.767 30.6769C22.6388 30.7524 22.5371 30.8101 22.4664 30.8496C22.4311 30.8693 22.4035 30.8844 22.3842 30.8949L22.3616 30.9072L22.355 30.9107L22.3523 30.9121C22.1323 31.0289 21.8677 31.0289 21.6477 30.9121L21.645 30.9107Z" fill="#4B98B9"/>
</svg>
